<svg id="Capa_1" data-name="Capa 1" xmlns="http://www.w3.org/2000/svg" viewBox="0 0 500.01 500.13"><defs><style>.cls-1{fill:#087b8b;}.cls-2{fill:#fff;}</style></defs><title>cuenta</title><path class="cls-1" d="M297.78,703.93C159.87,702.86,48.13,594.41,48,455.14,47.82,314.24,157,204,296.64,203.8,441,203.62,547.75,316.35,548,453,548.23,596.05,434.14,703.3,297.78,703.93Z" transform="translate(-47.98 -203.8)"/><path class="cls-2" d="M298.4,510.39C367.64,513.55,419,545.12,451,607.22c3.62,7,3.29,7.43-2.76,12.48-22.65,18.87-47,34.84-75.11,44.51a226.37,226.37,0,0,1-60.92,12.35q-88,5-156.49-50.75c-3.36-2.74-6.64-5.56-10-8.3-3-2.42-3.51-4.87-1.7-8.6,20.38-41.85,51.92-71.56,95.59-88A167.37,167.37,0,0,1,298.4,510.39Z" transform="translate(-47.98 -203.8)"/><path class="cls-2" d="M298.27,478.31c-51.65-.46-88.6-37.49-88.12-88.3.48-50.59,37.68-87.67,87.65-87.25,55.19.46,88.21,41.34,88.07,87.82C385.72,439.83,349.66,478.5,298.27,478.31Z" transform="translate(-47.98 -203.8)"/></svg>