<svg id="Capa_1" data-name="Capa 1" xmlns="http://www.w3.org/2000/svg" viewBox="0 0 529.98 529.85"><defs><style>.cls-1{fill:#087b8b;}.cls-2{fill:#097b8b;}.cls-3{fill:#fff;}.cls-4{fill:#040402;}.cls-5{fill:#fefefe;}.cls-6{fill:#fbbd2f;}</style></defs><title>finanzas</title><path class="cls-1" d="M536.33,672.87c-6.84-5.49-13.64-11-20.54-16.47-4.76-3.74-4.82-3.66-1.35-8.35.16-.21.3-.44.46-.65,4.19-5.84,3.91-5.52,9.33-1,11,9.27,22.34,18.15,33.53,27.2a25.38,25.38,0,0,1,3.25,3c2.68,3.07,2.83,5.61-.2,8.4-4.71,4.31-9.74,8.28-14.7,12.3-8.18,6.64-16.44,13.17-24.61,19.81-1.66,1.36-2.87,2.11-4.36-.29-1-1.55-2.56-2.7-3.81-4.08-3-3.31-2.9-4.3.88-6.83,8-5.36,15.1-11.8,23-17.85-1.9-1.1-3.63-.66-5.23-.66q-160.3,0-320.59,0H77.75c-12.31,0-13.45-1.15-13.45-13.46v-459c-1.84-.2-2.16,1.25-2.82,2.06-5.62,7-11.22,13.91-16.68,21-1.57,2-2.74,2.45-4.72.55a31,31,0,0,0-4.92-3.41c-2.74-1.73-2.64-3.55-.55-5.82,10.24-11.08,19-23.41,28.57-35,.26-.31.5-.63.76-.93,5.22-6.26,8.65-6.32,13.81-.09,3.48,4.21,6.83,8.53,10.25,12.79,6.42,8,12.81,16,19.32,24,1.54,1.87,1.7,3-.51,4.36a23.24,23.24,0,0,0-4.17,3.71c-2.47,2.55-4.54,2.28-6.41-.65-3.81-6-8.66-11.16-13-16.77-.82-1.07-1.49-3.08-3.11-2.55a4.65,4.65,0,0,0-3,4.42c-.07,2.11.3,4.24.3,6.37,0,24.41.15,48.83,0,73.24-.76,120.73-.11,241.46-.33,362.19,0,.8,0,1.6,0,2.4.08,6.27,1.58,7.82,7.84,7.83q39,0,78.05,0,180.5,0,361-.08c3.95,0,7.91-.37,11.86-.57Z" transform="translate(-33.07 -188.53)"/><path class="cls-2" d="M562.91,299.09c-.24,60.06-48.21,110.37-110.48,110.43S341.88,358.8,342,298.7c.11-60.85,49.84-110.32,110.64-110.16A110.65,110.65,0,0,1,562.91,299.09Z" transform="translate(-33.07 -188.53)"/><path class="cls-1" d="M493.36,541.79V641c0,1.87,0,3.75-.14,5.6-.33,3.36-2.19,5.56-5.64,5.6q-17.79.18-35.6,0c-3.5,0-5.21-2.37-5.82-5.54a21.19,21.19,0,0,1-.14-4q0-100.82,0-201.64c0-7.78,1.83-9.65,9.66-9.68q14.2-.07,28.41,0c7.44,0,9.26,1.82,9.26,9.17Q493.38,491.18,493.36,541.79Z" transform="translate(-33.07 -188.53)"/><path class="cls-1" d="M376.51,550.28q0-45.6,0-91.19c0-8.6,1.62-10.24,10.27-10.25,9.73,0,19.47-.06,29.2,0,5.9.05,7.55,1.64,8.15,7.49.13,1.32.07,2.67.07,4v180c0,11.06-1,12-12.09,12.06-8.8,0-17.6,0-26.4,0-7.3,0-9.19-2-9.2-9.31Q376.49,596.67,376.51,550.28Z" transform="translate(-33.07 -188.53)"/><path class="cls-1" d="M307.34,567.93q0-37,0-74c0-9,1.48-10.49,10.4-10.5s18.13,0,27.2,0c7.86,0,9.78,1.88,9.78,9.6q0,75,0,150c0,7.67-1.69,9.32-9.47,9.35q-14.19.06-28.4,0c-8,0-9.49-1.54-9.5-9.66Q307.3,605.33,307.34,567.93Z" transform="translate(-33.07 -188.53)"/><path class="cls-1" d="M337.25,387.83c-1.25,7.39-2.76,16.17-4.21,25q-1.65,10.05-3.14,20.11c-.4,2.76-1.2,4.63-4.56,3.27a13.37,13.37,0,0,0-3.52-.66c-6.07-.66-5.93-.61-4.69-6.79,1.46-7.29,2.66-14.65,3.92-22a15.44,15.44,0,0,0,.14-3.19c-.12-3-1.07-4-4.13-2.23-16.41,9.69-32.9,19.24-49.36,28.84q-51.8,30.22-103.58,60.47c-10.7,6.25-21.39,12.51-32,18.87-2.8,1.68-5,2.52-6.09-1.65a3,3,0,0,0-.39-.7c-4.32-7.14-4.15-6.83,3.07-10.87,13.72-7.67,27.23-15.72,40.82-23.64L273.43,412c10-5.84,20.05-11.63,30.08-17.46a11.74,11.74,0,0,0,1.3-.92c1.48-1.21,3.18-2.81,2.94-4.52s-2.72-1-4.15-1.3c-6.79-1.34-13.63-2.39-20.46-3.55-.77-.13-2.11-.19-2.21-.55-1-3.68,0-7.32.8-10.88.56-2.59,3-1.88,4.69-1.46,14.62,3.63,29.65,4.9,44.36,8C335.69,380.39,337.34,382.15,337.25,387.83Z" transform="translate(-33.07 -188.53)"/><path class="cls-1" d="M285.25,581.19q0,31,0,62c0,7.61-1.59,9.19-9.12,9.23-10,0-20,.06-30,0-6.25,0-8.18-1.92-8.19-8.16q-.06-63.18,0-126.36c0-6.31,1.87-8.11,8.13-8.15q15.6-.12,31.19,0c6,0,7.92,1.89,7.94,7.91.06,21.2,0,42.39,0,63.58Z" transform="translate(-33.07 -188.53)"/><path class="cls-1" d="M216.05,593.84q0,24.61,0,49.21c0,7.55-1.69,9.31-9.08,9.34-10.13.05-20.27.07-30.4,0-5.91-.05-7.28-1.39-7.89-7.16a47.82,47.82,0,0,1-.19-4.79q0-46.2,0-92.41c0-11.48,1-12.49,12.53-12.52q13,0,26,0c6.94,0,9,2.13,9,9.15Q216.08,569.24,216.05,593.84Z" transform="translate(-33.07 -188.53)"/><path class="cls-1" d="M146.58,611.59c0,10.79,0,21.59,0,32.38,0,6.5-1.82,8.36-8.31,8.41q-15.39.12-30.77,0c-6.44,0-8.19-1.92-8.2-8.5q0-32.58,0-65.16c0-6.44,1.3-8,7.88-8.37a275.26,275.26,0,0,1,32.75.1c4.82.33,6.58,2.31,6.62,7.18.09,11.32,0,22.65,0,34Z" transform="translate(-33.07 -188.53)"/><path class="cls-3" d="M452.68,203.48c52.25,0,95.08,43,95.09,95.46,0,52.66-42.8,95.56-95.38,95.58s-95.24-42.87-95.26-95.67C357.11,246.23,399.93,203.49,452.68,203.48Z" transform="translate(-33.07 -188.53)"/><path class="cls-4" d="M426.36,322.78c1.2,0,2.4,0,3.6,0,5.18-.15,6.53.81,8,5.81,2.13,7.29,7.44,11.53,14.44,11.53s12.49-4.36,14.58-11.44c2.85-9.66-4.39-18.26-15.91-19-9.07-.55-17.21-3.56-23.88-9.85A36.51,36.51,0,0,1,437,239.78c3-1.36,5.15-2.33,4.44-6.49-.63-3.66,2-5.93,5.84-6a85.91,85.91,0,0,1,8.79.21c4.68.35,6.36,1.92,6.75,6.72.21,2.63,1.24,3.88,3.67,4.9,13,5.46,20.21,15.61,22.66,29.28.91,5.11-1.15,7.16-6.35,7-2-.07-4,0-6,0-5.71,0-8.9-2.25-10.82-7.62-2.61-7.31-8.73-11.16-15.58-9.82-8.09,1.58-13.47,8.06-13.08,15.77A15.07,15.07,0,0,0,451.48,288a63.33,63.33,0,0,1,7.14.77c16.36,2.92,28.54,15.49,30.58,31.64a36.48,36.48,0,0,1-21.56,37.94c-3.24,1.43-4.95,2.83-4.22,6.76.64,3.43-1.58,5.51-5.14,5.59-3.33.08-6.67,0-10-.12-4.24-.18-6.17-1.88-6.23-6.16,0-3-1.13-4.38-3.87-5.56C425.11,353.19,417.8,343,415.67,329c-.65-4.3.76-6,5.09-6.19,1.86-.1,3.73,0,5.6,0Z" transform="translate(-33.07 -188.53)"/><path class="cls-3" d="M476.33,542.62c0,29.35-.08,58.7.08,88,0,4-1.23,5.32-5,4.74a22.72,22.72,0,0,0-3.2-.17c-3.47,0-4.83-1.66-4.79-5.23.12-12.8,0-25.61,0-38.42q-.07-68.83-.13-137.67c0-5.42,0-5.42,5.18-5.27,7.69.22,7.77.24,7.78,7.92q0,43,0,86.05Z" transform="translate(-33.07 -188.53)"/><path class="cls-3" d="M393.94,549.84c0-26.54.07-53.08-.09-79.62,0-3.56.92-4.56,4.46-4.43,8.36.33,8.49.15,8.5,8.54q.07,70.23,0,140.45c0,5.6-.06,11.21.11,16.8.08,2.92-.87,4-3.92,3.89-9-.21-9-.09-9-9.2V549.84Z" transform="translate(-33.07 -188.53)"/><path class="cls-3" d="M337.58,569c0,20.66-.08,41.33.07,62,0,3.4-.68,4.67-4.36,4.54-8.19-.29-8.81-.69-8.82-8.85,0-40.39,0-80.78-.16-121.17,0-3.91,1.1-5,4.92-4.8,8.19.39,8.22.21,8.22,8.31q0,30,0,60Z" transform="translate(-33.07 -188.53)"/><path class="cls-3" d="M255.08,579.85c0-16.4.07-32.79-.06-49.19,0-3.14.83-4.11,4-4,9.06.29,9.07.15,9.08,9.14q0,47.19.05,94.39c0,5.38,0,5.38-5.52,5.2l-.4,0c-6.68-.28-7-.56-7-7.12q0-24.21,0-48.4Z" transform="translate(-33.07 -188.53)"/><path class="cls-3" d="M198.8,595c0,12.27-.06,24.54.06,36.81,0,2.73-.71,3.67-3.58,3.65-9.36,0-9.44,0-9.44-9.2,0-23.07,0-46.15-.12-69.22,0-3.15.51-4.38,4-4.31,9,.2,9,0,9,9.06q0,16.61,0,33.21Z" transform="translate(-33.07 -188.53)"/><path class="cls-5" d="M129.49,612.32c0,6.66-.11,13.33.06,20,.07,2.56-.87,3.1-3.23,3.14-9.69.16-9.95,0-10-9.5,0-11.73.06-23.46-.07-35.19,0-2.51.54-3.37,3.25-3.41,9.82-.14,9.83-.26,9.87,9.78,0,5.06,0,10.12,0,15.19Z" transform="translate(-33.07 -188.53)"/><path class="cls-6" d="M427.17,327.33c4.06-1.32,5.89.9,7.47,5.3,3.33,9.24,13.2,13.82,22.85,11.39,9.1-2.29,15.12-11.11,14.29-21A19.08,19.08,0,0,0,454,305.63c-11.1-.78-20.82-4.23-27.72-13.59a31.85,31.85,0,0,1,10.93-47.29q2.31-1.2,4.7-2.22c3.49-1.48,4.65-4.19,4.08-7.76-.37-2.28.45-3.29,2.8-3a23.66,23.66,0,0,0,2.8.13c6,.07,6,0,7.29,6.09.57,2.76,2.55,3.81,4.88,4.72,10.87,4.24,17.47,12.24,20.5,23.39.85,3.14.74,5.21-3.43,4.51a18.47,18.47,0,0,0-4,.14c-3.39.21-5.43-1.25-6.54-4.56-3.21-9.59-10.53-14-20.76-12.62-8.71,1.14-16,9-16.68,17.92-.68,9.14,5.44,18,14.25,20.23a53.31,53.31,0,0,0,8.32,1.05c14.74,1.39,26.74,12.35,29.09,26.6,2.47,15-5.06,28.89-19.19,35-4.35,1.87-7.31,4.41-6.47,9.63.29,1.82-.45,2.46-2.24,2.15a17.21,17.21,0,0,0-2.79-.16c-6.48-.1-6.48-.09-7.84-6.22-.6-2.71-2.69-3.71-5-4.66-10.41-4.28-17.33-11.63-19.92-22.81-1.16-5-1.27-5,3.86-5Z" transform="translate(-33.07 -188.53)"/></svg>