<svg id="Capa_1" data-name="Capa 1" xmlns="http://www.w3.org/2000/svg" viewBox="0 0 328.46 470.61"><defs><style>.cls-1{fill:#087b8b;}.cls-2{fill:#fff;}.cls-3{fill:#020303;}.cls-4{fill:#010303;}.cls-5{fill:#020404;}.cls-6{fill:#eee1f0;}.cls-7{fill:#087a8a;}</style></defs><title>productos</title><path class="cls-1" d="M158.39,427.93V244.63c0-1.37,0-2.73,0-4.1,0-5.65.88-6.86,6.39-8.52,10-3,20-5.9,29.93-8.84l154.46-45.44q39.3-11.55,78.61-23.06c.61-.17,1.21-.38,1.82-.53,6.89-1.76,9.71.38,9.72,7.54q0,31.55,0,63.09c0,6.21,1.42,7.63,7.54,7.61,10.62,0,21.24-.07,31.86,0,6.25,0,8,1.83,8,8.17q0,44,0,88,0,142,.05,284c0,1.68,0,3.37-.07,5-.32,4.46-2.65,6.62-7.06,6.62H165.47c-4.41,0-6.73-2.17-7-6.63-.12-1.67-.08-3.36-.08-5V427.93Z" transform="translate(-158.34 -153.55)"/><path class="cls-2" d="M473.21,428.62V602.75c0,1.27,0,2.53-.07,3.79-.2,2.46-1.48,3.85-4.07,3.82-1.27,0-2.53,0-3.79,0H195c-5.89,0-11.78.08-17.66,0-4.26,0-5.34-1-5.33-5.17,0-28.92.18-57.83.2-86.75,0-22.08-.16-44.16-.15-66.24,0-35.85.17-71.71.17-107.57,0-30.17-.16-60.35-.25-90.53,0-1.26,0-2.52.05-3.78.15-2.76,1.54-4.24,4.4-4.22,5,0,9.89,0,14.83,0l273.47-.06c8.35,0,8.52.17,8.52,8.38Z" transform="translate(-158.34 -153.55)"/><path class="cls-3" d="M243.42,306.13c2.31-3.8,4.44-7.28,6.54-10.77,2.72-4.49,5.35-9,8.13-13.48,3-4.85,7-6.63,11.6-5.44,4.32,1.11,7.13,5.11,7.35,10.59.1,2.41.07,4.83.07,7.25q0,26,0,52a19.1,19.1,0,0,1-.68,5.29c-1.37,4.81-5.54,7.73-10.11,7.23a9.47,9.47,0,0,1-8.73-9.51c-.14-8.09-.06-16.18-.07-24.28a6.7,6.7,0,0,0-.57-3.19c-.66,1.12-1.33,2.24-2,3.37a29.54,29.54,0,0,1-4.52,6.42c-4.48,4.37-9.71,4.33-14.18-.09-2.56-2.53-4-5.82-6.73-8.68v10.42c0,4.94.1,9.88,0,14.82-.18,6.17-3.69,10.19-9,10.65A9.31,9.31,0,0,1,210.22,351a31.55,31.55,0,0,1-.34-5.33q0-28.23,0-56.45a28.71,28.71,0,0,1,.42-5.32c.68-3.57,2.67-6.26,6.29-7.16s7.1-.49,9.92,2.39A25.61,25.61,0,0,1,230,284Z" transform="translate(-158.34 -153.55)"/><path class="cls-4" d="M348.36,329.9c0,4.79.05,9.57,0,14.35a41.08,41.08,0,0,1-.48,6.27c-.86,5.15-5,8.66-9.8,8.45a9.72,9.72,0,0,1-9.19-9.49c-.21-4.82-.14-9.66-.14-14.5,0-15.87.06-31.74.06-47.62a13.77,13.77,0,0,1,.94-5.54,8.75,8.75,0,0,1,7.65-5.75,9.19,9.19,0,0,1,9.13,4.47c2.1,3.5,3.88,7.19,5.73,10.84,2.54,5,5,10.07,8.15,15v-3c0-5.68-.13-11.36.09-17,.25-6.66,3.89-10.19,10-10.07,5.64.11,9.35,4.06,9.51,10.35.11,4.62.05,9.25,0,13.88,0,15.87,0,31.74,0,47.61,0,6.11-3.26,9.86-9,10.62-4.21.57-7.47-1.34-10-6.11-3.09-5.84-6.05-11.76-9.09-17.63-.94-1.8-2-3.54-3-5.32Z" transform="translate(-158.34 -153.55)"/><path class="cls-5" d="M435.06,312.48c0,6.31.38,14.4-.05,22.5-.7,13.22-11.08,23.41-24.57,24-12.4.58-24.09-9.12-25.92-21.65a67.58,67.58,0,0,1-.62-9.43c0-12.72,0-25.44.07-38.16a29.52,29.52,0,0,1,.41-5.64c1-5.16,4.56-7.88,9.87-7.78,4.9.09,8.15,2.91,9,8a28.45,28.45,0,0,1,.3,4.71c0,13.56,0,27.12,0,40.69a21.36,21.36,0,0,0,.36,4.38c.72,3.39,3.21,5.42,6.15,5.21s5.21-2.41,5.36-6c.22-4.93.19-9.88.2-14.82,0-9.36,0-18.71,0-28.07a44.56,44.56,0,0,1,.34-5.66c.81-5.84,4.47-8.74,10.51-8.44,5.11.25,8.42,3.77,8.49,9.41C435.14,294.09,435.06,302.39,435.06,312.48Z" transform="translate(-158.34 -153.55)"/><path class="cls-5" d="M302.72,359.31c-4.3-.19-8.61-.25-12.9-.6-4.51-.37-7.33-2.91-8.27-7.34a27.36,27.36,0,0,1-.53-5.64q-.09-27.75-.09-55.51c0-1.05,0-2.1.07-3.15.44-7.23,3.58-10.63,10.79-10.9s14.71-.14,22.07,0c3.34.06,6.49,1,8.61,3.87a9.15,9.15,0,0,1,1.16,9.55c-1.62,3.72-4.7,5.58-8.64,5.93a62.06,62.06,0,0,1-12,.12c-1.78-.19-2.45.46-2.48,2.25-.22,10.93-.72,9.41,9.19,10,1.88.11,3.79-.06,5.66.12,5.33.54,8.87,4.23,9,9.23s-3.48,9.12-8.74,9.9a57.22,57.22,0,0,1-12.27.26c-2.36-.16-2.94.64-2.72,2.83a24.42,24.42,0,0,1,0,6c-.47,3,.8,3.54,3.46,3.36,3.35-.22,6.73-.11,10.09,0,6,.2,10.06,4,10.17,9.42s-3.76,9.36-9.7,9.95c-.52.05-1,.11-1.57.11-3.47,0-6.93,0-10.4,0Z" transform="translate(-158.34 -153.55)"/><path class="cls-6" d="M235.33,227.72c9.43-2.8,18.85-5.64,28.28-8.41L420.1,173.4c3.64-1.07,3.64-1.07,3.64,2.72,0,16.4-.06,32.8.09,49.19,0,2.8-1,3.28-3.44,3.27q-50-.14-99.95-.11h-85Z" transform="translate(-158.34 -153.55)"/><path class="cls-7" d="M322.29,430.39q61.18,0,122.38,0c2.31,0,4.62-.15,6.86.71a5.4,5.4,0,0,1,.2,10.1,19.17,19.17,0,0,1-7.12,1.14q-122.53,0-245.08,0a21.6,21.6,0,0,1-4.68-.54c-3.22-.71-5-3.07-4.78-6.09.2-2.81,2.22-4.8,5.42-5.16a41.45,41.45,0,0,1,4.73-.15Z" transform="translate(-158.34 -153.55)"/><path class="cls-7" d="M322.84,477.8H446.13a20.69,20.69,0,0,1,4.39.23,5.33,5.33,0,0,1,4.53,5.3c.19,2.93-1.23,4.8-3.91,5.76a13.75,13.75,0,0,1-4.66.63H199a12.62,12.62,0,0,1-5.54-1,5.34,5.34,0,0,1-3.33-5.55,5.24,5.24,0,0,1,3.84-4.86c1.94-.7,3.94-.52,5.93-.52Z" transform="translate(-158.34 -153.55)"/><path class="cls-7" d="M322.45,537.09H198.82a14,14,0,0,1-5-.48c-2.66-1-3.65-3-3.73-5.63a4.88,4.88,0,0,1,3.53-5,12.91,12.91,0,0,1,3.36-.71c1.47-.13,2.94-.09,4.42-.09H444.89a33.7,33.7,0,0,1,4.72.14,6,6,0,0,1,5.46,6.22c-.16,3-2.45,5.23-5.83,5.53-1.26.11-2.52.05-3.79.05Z" transform="translate(-158.34 -153.55)"/><path class="cls-1" d="M261.28,310.73a44.71,44.71,0,0,0-9.63,12.37,31.88,31.88,0,0,1-3,4.77c-3.48,4.23-7.12,4.28-10.42-.05-2.23-2.91-4-6.17-5.94-9.28a15.4,15.4,0,0,0-1.31-2.15c-.76-.82-.63-2.81-2.48-2.25a3.73,3.73,0,0,0-2.92,4c.77,9.46-.41,18.9,0,28.35a15.8,15.8,0,0,1-.21,3.77,5.81,5.81,0,0,1-6,4.58A5.34,5.34,0,0,1,214,350a38.05,38.05,0,0,1-.43-5.33q0-27.43,0-54.88a39.07,39.07,0,0,1,.41-4.69c.3-2.4,1.49-4.21,3.93-4.76,2.66-.6,5.1-.05,6.69,2.36,1.79,2.72,3.44,5.53,5.13,8.31,3.66,6,7.29,12,11,18,2.09,3.41,3.42,3.4,5.49,0,5.06-8.36,10.08-16.74,15.16-25.09,2.08-3.43,4.41-4.61,7.51-3.72s4,3.56,4.24,6.37a60.1,60.1,0,0,1,.13,6.3q0,26.32,0,52.67a15.16,15.16,0,0,1-.72,5.28c-1,2.63-2.71,4.26-5.7,4a5.58,5.58,0,0,1-5.33-4.94,18.87,18.87,0,0,1-.16-3.45q0-15.78,0-31.54Z" transform="translate(-158.34 -153.55)"/><path class="cls-1" d="M344.5,316.29c0,8.3,0,16.59,0,24.89a82.92,82.92,0,0,1-.41,8.49,5.46,5.46,0,0,1-5.34,5.21c-3,.14-5.05-1.44-5.82-4.64a14.51,14.51,0,0,1-.31-3.43q0-29.32,0-58.65c0-.42,0-.85,0-1.27.15-3.76,1.7-6.15,4.44-6.86s5.42.68,7.25,4.24c5.09,9.91,10,19.88,15.12,29.8,1.17,2.29,2.74,2.47,4.3.75.74-.82.49-1.78.5-2.7,0-7.78,0-15.55,0-23.33a16.55,16.55,0,0,1,.47-4.69,5,5,0,0,1,5-3.92c2.77-.1,4.68,1,5.68,3.55a12.74,12.74,0,0,1,.72,4.64q0,29.47,0,59c0,2.48-.27,4.87-2.49,6.47-3.33,2.4-7.07,1.18-9.3-3.05-4.06-7.71-8-15.48-12.16-23.15-2.13-3.94-4.6-7.7-6.91-11.54Z" transform="translate(-158.34 -153.55)"/><path class="cls-1" d="M399.66,309q0,10.71,0,21.44a17.19,17.19,0,0,0,1.15,6.47,9.53,9.53,0,0,0,9.57,6.29,9.33,9.33,0,0,0,8.72-8.14c.89-5.21.4-10.48.47-15.73.12-9.66,0-19.33.05-29a32.85,32.85,0,0,1,.23-5.35c.57-3.42,2.77-5,6.3-4.75,3.24.21,5,2,5,5.61.07,11.24-.09,22.49.17,33.73.12,5.05,0,10.07-.18,15.1a21,21,0,0,1-20.2,20.25c-11.8.4-21.88-7.86-22.73-19-1.24-16.15-.42-32.34-.47-48.51a10,10,0,0,1,.34-2.17c.78-3.64,2.88-5.25,6.46-5,3,.22,5,2.19,5,5.76.13,7.66,0,15.34,0,23Z" transform="translate(-158.34 -153.55)"/><path class="cls-1" d="M284.76,317.24c0-9.57,0-19.14,0-28.71,0-6.28,1.62-8.23,7.86-8.51a169.57,169.57,0,0,1,21.74.12c4.07.34,6.27,2.56,6.2,5.75s-2.64,5.64-6.61,5.81-7.78,0-11.67.08c-3.7,0-5.43,1.65-5.57,5.32-.09,2.41-.08,4.83,0,7.25.12,4.42,2.12,6.64,6.48,7,3.56.27,7.14.27,10.71.42,4.09.17,6.62,2.31,6.68,5.62s-2.56,5.83-6.73,6c-3.88.13-7.78,0-11.67.06s-5.38,1.58-5.42,5.34c0,3,0,6.1,0,9.15,0,4,1.54,5.44,5.6,5.46,3.79,0,7.57-.05,11.36,0,4.32.1,6.86,2.29,6.86,5.74s-2.53,5.57-6.79,5.83a183.35,183.35,0,0,1-21.74,0c-5.25-.31-7.21-2.16-7.24-7.72-.06-10,0-20,0-30Z" transform="translate(-158.34 -153.55)"/></svg>